<?xml version="1.0" standalone="no"?>
<!DOCTYPE svg PUBLIC "-//W3C//DTD SVG 20010904//EN"
 "http://www.w3.org/TR/2001/REC-SVG-20010904/DTD/svg10.dtd">
<svg version="1.0" xmlns="http://www.w3.org/2000/svg"
 width="535.000000pt" height="243.000000pt" viewBox="0 0 535.000000 243.000000"
 preserveAspectRatio="xMidYMid meet">
<metadata>
Created by potrace 1.16, written by Peter Selinger 2001-2019
</metadata>
<g transform="translate(0.000000,243.000000) scale(0.100000,-0.100000)"
fill="#000000" stroke="none">
<path d="M10 1215 l0 -1205 2665 0 2665 0 0 1205 0 1205 -2665 0 -2665 0 0
-1205z m5248 3 l-3 -1123 -2580 0 -2580 0 -3 1110 c-1 611 0 1116 3 1123 3 9
530 12 2585 12 l2580 0 -2 -1122z"/>
<path d="M2796 1783 c-139 -435 -384 -1169 -402 -1204 -27 -54 -75 -98 -115
-106 -69 -14 -18 -23 126 -23 85 0 155 2 155 5 0 2 -18 9 -41 15 -33 9 -43 18
-56 47 -18 45 -8 93 71 329 l53 159 233 3 c180 2 235 -1 242 -10 4 -7 37 -102
73 -211 92 -275 89 -299 -35 -325 -34 -7 11 -10 178 -11 142 -1 222 3 222 9 0
6 -11 10 -25 10 -37 0 -95 58 -125 125 -15 33 -119 324 -231 647 l-204 588
-52 0 -51 0 -16 -47z m133 -408 c59 -170 106 -313 104 -317 -5 -10 -421 -10
-426 0 -2 4 40 142 94 307 53 165 100 309 104 320 3 11 9 16 11 10 3 -5 54
-149 113 -320z"/>
<path d="M720 1801 c51 -11 78 -28 97 -64 16 -29 18 -79 21 -567 2 -366 0
-551 -8 -586 -12 -59 -46 -96 -105 -118 -37 -14 -24 -15 180 -15 204 0 217 1
180 15 -51 19 -93 59 -106 104 -6 21 -9 136 -7 290 l3 255 140 3 c239 5 286
-10 318 -101 15 -40 15 -36 15 118 0 154 0 158 -15 118 -32 -91 -79 -106 -318
-101 l-140 3 0 310 0 310 165 3 c95 2 187 -1 216 -8 62 -13 109 -58 129 -121
14 -44 14 -43 14 59 l1 102 -407 -1 c-225 -1 -392 -4 -373 -8z"/>
<path d="M4265 1801 c48 -12 75 -30 95 -64 19 -31 20 -55 20 -597 0 -518 -1
-568 -18 -600 -15 -32 -43 -51 -107 -77 -23 -9 140 -15 302 -11 69 2 101 6 88
11 -71 29 -87 40 -105 69 -19 32 -20 52 -20 603 0 547 1 571 20 602 20 34 47
52 95 64 17 4 -67 7 -185 7 -118 0 -201 -3 -185 -7z"/>
</g>
</svg>
